<?xml version="1.0" standalone="no"?>
<!DOCTYPE svg PUBLIC "-//W3C//DTD SVG 20010904//EN"
 "http://www.w3.org/TR/2001/REC-SVG-20010904/DTD/svg10.dtd">
<svg version="1.0" xmlns="http://www.w3.org/2000/svg"
 width="899.000000pt" height="1280.000000pt" viewBox="0 0 899.000000 1280.000000"
 preserveAspectRatio="xMidYMid meet">
<metadata>
Created by potrace 1.15, written by Peter Selinger 2001-2017
</metadata>
<g transform="translate(0.000000,1280.000000) scale(0.100000,-0.100000)"
fill="#ffffff" stroke="none">
<path d="M6461 12772 c-55 -37 -113 -116 -166 -227 -126 -261 -200 -736 -229
-1480 -12 -323 -18 -362 -49 -314 -57 90 -192 914 -217 1329 -26 433 -25 426
-54 484 -30 61 -65 82 -123 73 -48 -8 -100 -46 -181 -132 -106 -113 -167 -231
-238 -460 -31 -100 -37 -139 -42 -236 -7 -175 20 -287 138 -574 113 -275 138
-409 67 -362 -38 25 -83 103 -157 275 -75 177 -118 255 -224 411 -149 220
-236 271 -301 173 -55 -84 -84 -315 -66 -530 23 -265 73 -368 302 -617 96
-105 200 -235 237 -296 38 -63 25 -91 -30 -63 -70 36 -131 90 -233 207 -179
206 -383 382 -470 406 -67 18 -190 -20 -228 -71 -58 -78 -13 -299 117 -573 97
-204 220 -316 574 -524 144 -85 193 -124 175 -141 -28 -29 -200 48 -552 248
-220 125 -246 136 -344 152 -49 8 -75 7 -103 -2 -81 -27 -68 -109 45 -280 97
-146 144 -183 524 -408 221 -130 305 -194 294 -223 -9 -25 -72 -22 -132 7 -28
13 -120 68 -205 123 -346 223 -417 252 -554 223 -114 -23 -165 -103 -153 -238
20 -215 138 -438 350 -659 96 -100 140 -132 222 -162 93 -35 217 -103 222
-122 3 -9 14 -20 26 -23 39 -10 2 -29 -55 -28 -207 2 -503 268 -741 667 -62
104 -86 157 -122 267 -79 246 -80 252 -80 703 0 395 0 401 -23 446 -38 79
-101 93 -192 43 -61 -33 -140 -118 -171 -182 -51 -110 -69 -290 -70 -711 0
-323 -5 -400 -24 -404 -11 -2 -30 49 -46 123 -6 25 -14 178 -19 340 l-8 295
-35 110 c-70 219 -126 656 -142 1095 -11 311 -49 440 -130 440 -38 0 -104 -69
-193 -204 -98 -146 -137 -235 -182 -416 -51 -204 -63 -313 -57 -515 7 -259 41
-423 173 -828 64 -198 77 -267 50 -267 -22 0 -66 58 -97 126 -15 33 -46 137
-68 230 -40 164 -78 314 -128 499 -26 98 -100 485 -188 990 -67 384 -96 521
-125 597 -86 229 -234 116 -358 -273 -96 -301 -120 -539 -87 -849 27 -257 88
-515 194 -820 28 -80 51 -153 51 -162 0 -28 -20 -32 -44 -9 -43 40 -75 116
-121 286 -64 238 -76 264 -157 347 -47 47 -81 95 -107 147 -40 80 -200 468
-221 536 -7 22 -16 141 -20 265 -9 234 -23 331 -61 421 -56 130 -159 115 -285
-41 -98 -122 -117 -197 -134 -532 -13 -255 -6 -352 35 -471 64 -183 158 -303
501 -643 156 -154 288 -293 294 -308 22 -60 -15 -85 -72 -48 -15 9 -69 65
-121 123 -155 173 -543 570 -760 778 -344 330 -470 426 -513 390 -39 -32 6
-221 95 -398 48 -94 64 -165 81 -356 6 -71 18 -151 26 -177 33 -103 122 -184
321 -291 134 -72 187 -108 338 -232 100 -82 175 -157 175 -174 0 -39 -59 -10
-195 94 -214 165 -435 307 -618 396 -149 73 -229 67 -257 -17 -16 -48 -6 -135
24 -199 34 -74 90 -141 337 -402 336 -355 417 -421 685 -556 164 -84 211 -114
196 -129 -22 -22 -156 29 -375 141 -178 90 -239 111 -325 111 -113 0 -232 -92
-232 -180 0 -41 43 -113 109 -184 54 -57 267 -230 547 -444 138 -105 256 -198
263 -206 17 -20 4 -25 -84 -33 -50 -4 -84 -12 -98 -24 -21 -16 -21 -18 -5 -51
18 -38 187 -200 246 -235 20 -13 45 -23 55 -23 16 0 16 -2 2 -30 -38 -74 -2
-150 123 -255 l80 -67 -40 -36 c-120 -108 -84 -180 180 -357 l132 -89 0 -54
c0 -76 22 -115 117 -209 96 -94 103 -116 53 -185 -16 -22 -30 -51 -30 -64 0
-14 22 -46 55 -82 30 -33 55 -67 55 -77 0 -9 -20 -36 -45 -61 -25 -24 -45 -50
-45 -58 0 -8 25 -48 55 -88 30 -40 62 -89 72 -108 22 -46 28 -111 14 -151 -10
-29 -8 -37 24 -89 42 -69 68 -137 55 -145 -5 -3 -19 -1 -31 5 -59 32 -42 -48
36 -163 67 -101 74 -118 89 -236 21 -158 53 -210 164 -265 71 -36 74 -49 23
-96 -22 -21 -41 -40 -41 -43 0 -21 28 -69 70 -122 70 -88 90 -156 55 -185 -32
-27 -6 -90 71 -171 34 -35 34 -36 19 -72 -33 -81 -24 -98 159 -296 53 -57 96
-110 96 -116 0 -17 -28 -39 -87 -69 -45 -23 -53 -30 -53 -55 0 -34 33 -69 108
-118 106 -67 125 -109 72 -156 -17 -15 -30 -32 -30 -37 0 -6 41 -55 90 -109
50 -55 90 -103 90 -108 0 -4 -25 -30 -55 -58 -68 -63 -71 -86 -16 -139 33 -32
49 -40 90 -44 44 -4 62 1 139 38 83 39 131 48 134 25 1 -5 -27 -30 -63 -54
-85 -58 -321 -297 -445 -452 -55 -68 -144 -189 -199 -268 -138 -201 -230 -312
-499 -595 -218 -230 -616 -603 -783 -733 -43 -33 -20 -48 71 -47 60 1 86 7
144 34 76 35 97 34 112 -4 15 -41 44 -49 147 -44 72 4 98 2 108 -8 7 -8 22
-14 33 -14 10 0 41 -11 68 -25 27 -14 54 -25 59 -25 6 0 27 -8 47 -19 47 -23
145 -36 164 -20 11 9 15 8 19 -5 3 -9 7 -23 10 -31 8 -26 55 -37 180 -42 175
-8 271 3 302 34 22 21 24 30 19 67 -6 39 -5 44 16 50 13 3 51 6 86 6 77 0 124
19 147 58 11 19 29 32 47 36 21 4 33 15 44 41 16 39 17 39 44 25 21 -11 21
-11 35 105 9 66 30 116 80 195 86 135 210 254 471 456 245 188 274 226 299
393 19 127 19 180 0 316 -16 112 -14 145 10 145 18 0 21 -12 40 -170 33 -263
93 -439 179 -518 50 -46 82 -57 216 -72 183 -21 249 -52 318 -150 81 -116 107
-138 199 -166 84 -25 101 -42 72 -71 -12 -12 -1 -41 27 -63 14 -12 18 -12 29
3 7 9 15 17 19 17 14 0 -7 -45 -47 -105 -51 -75 -67 -129 -67 -220 0 -110 22
-170 84 -231 41 -40 66 -54 121 -72 122 -37 250 -38 250 -1 0 14 -37 29 -123
50 -93 22 -132 89 -132 227 l0 70 43 22 c69 36 123 86 171 158 l45 68 93 0
c72 0 117 6 198 28 154 42 163 57 45 71 -65 8 -82 15 -134 54 l-33 25 26 23
c48 41 118 55 316 62 175 6 188 8 242 34 31 15 64 39 73 53 14 23 22 25 52 21
111 -18 134 -134 47 -235 -45 -53 -41 -77 14 -69 86 14 161 157 149 285 -13
134 -86 197 -242 209 -41 3 -75 7 -75 7 0 1 9 19 20 41 11 22 20 51 20 65 0
22 -18 105 -37 164 -5 17 -1 17 39 -7 75 -44 150 -68 228 -74 67 -5 83 -3 140
22 86 36 127 40 209 20 56 -14 79 -15 129 -5 54 9 199 61 253 91 15 8 19 6 19
-8 1 -15 5 -13 25 9 13 16 26 28 28 28 11 0 -13 -83 -29 -102 -11 -11 -78 -73
-149 -138 -153 -138 -188 -190 -188 -280 0 -76 31 -138 104 -209 56 -55 170
-131 197 -131 7 0 15 7 19 16 4 11 -13 34 -55 74 -65 63 -83 102 -86 191 -1
42 4 51 57 113 31 37 60 78 63 90 4 16 28 34 82 60 104 52 174 99 250 170 l63
59 37 -16 c48 -21 127 -42 232 -62 119 -22 125 -26 139 -79 14 -57 14 -109 -1
-197 -14 -88 -5 -101 46 -69 72 44 116 165 116 323 0 100 4 103 68 57 57 -41
121 -130 147 -203 33 -98 61 -76 64 48 2 129 -122 326 -268 428 l-24 16 51 53
c28 29 69 76 92 105 57 73 130 108 208 100 73 -6 143 -41 215 -106 70 -65 82
-65 73 -3 -15 117 -124 253 -251 317 -53 26 -71 29 -150 30 -80 0 -96 -3 -145
-29 -55 -29 -164 -132 -210 -198 -54 -80 -190 -137 -325 -138 -106 0 -192 21
-338 83 l-98 41 2 48 c2 27 -3 54 -9 60 -17 17 -60 -6 -68 -37 -3 -14 -8 -25
-10 -25 -3 0 -41 19 -87 41 -109 55 -226 132 -317 209 -90 76 -321 301 -432
422 l-80 88 36 17 36 17 -30 19 -30 19 87 55 c241 151 425 313 565 496 70 91
152 159 226 187 43 16 77 20 181 20 l129 0 22 -59 c47 -126 203 -356 344 -506
53 -57 67 -67 75 -55 6 8 11 29 11 45 0 17 4 36 9 44 10 15 23 -10 50 -91 14
-41 29 -57 35 -36 2 7 9 31 15 54 6 22 51 101 100 175 49 74 97 156 106 183
39 118 42 292 9 477 -14 77 -14 91 0 146 21 81 20 148 -3 223 -16 50 -32 74
-93 138 -40 42 -110 131 -154 197 -99 148 -118 161 -331 225 -284 86 -625 155
-968 195 -128 15 -168 26 -153 40 14 14 196 46 295 52 82 4 113 10 117 20 9
22 -19 26 -117 20 -83 -6 -257 -36 -298 -52 -14 -5 -25 17 -62 117 -169 462
-202 839 -102 1157 14 44 25 83 24 88 -2 9 10 39 93 218 33 72 81 180 105 240
129 314 328 697 658 1270 93 161 144 274 145 321 0 12 -10 34 -22 49 -20 25
-26 27 -79 23 -78 -6 -194 -63 -246 -123 -22 -24 -74 -110 -118 -192 -90 -171
-132 -236 -148 -230 -8 2 -13 34 -15 82 -4 120 26 171 249 416 l76 84 6 105
c9 140 123 1020 142 1093 26 100 49 137 258 424 129 177 176 259 184 324 16
119 -66 145 -283 88 -149 -39 -223 -95 -364 -275 l-88 -113 -7 -138 c-12 -236
-44 -337 -144 -444 -75 -81 -82 -61 -32 87 44 130 52 171 76 374 22 181 48
312 95 477 89 315 207 624 365 958 31 66 68 154 82 195 60 177 -8 253 -167
187 -200 -82 -425 -343 -600 -696 -118 -238 -177 -416 -189 -576 -9 -112 -16
-145 -32 -145 -32 0 -58 153 -59 340 0 219 33 892 71 1450 19 272 0 418 -59
449 -31 16 -45 14 -91 -17z m-1735 -4649 c-1 -19 -24 -39 -33 -29 -5 5 24 46
32 46 2 0 2 -8 1 -17z"/>
</g>
</svg>
